<?xml version="1.0" encoding="UTF-8" standalone="no"?>
<!-- Created with Inkscape (http://www.inkscape.org/) -->

<svg
   xmlns:dc="http://purl.org/dc/elements/1.1/"
   xmlns:cc="http://creativecommons.org/ns#"
   xmlns:rdf="http://www.w3.org/1999/02/22-rdf-syntax-ns#"
   xmlns:svg="http://www.w3.org/2000/svg"
   xmlns="http://www.w3.org/2000/svg"
   xmlns:sodipodi="http://sodipodi.sourceforge.net/DTD/sodipodi-0.dtd"
   xmlns:inkscape="http://www.inkscape.org/namespaces/inkscape"
   width="960"
   height="540"
   viewBox="0 0 253.99999 142.875"
   version="1.1"
   id="svg8"
   inkscape:version="0.92.1 r15371"
   sodipodi:docname="Fondo.svg">
  <defs
     id="defs2">
    <pattern
       y="0"
       x="0"
       height="6"
       width="6"
       patternUnits="userSpaceOnUse"
       id="EMFhbasepattern" />
    <pattern
       y="0"
       x="0"
       height="6"
       width="6"
       patternUnits="userSpaceOnUse"
       id="pattern2024" />
    <pattern
       y="0"
       x="0"
       height="6"
       width="6"
       patternUnits="userSpaceOnUse"
       id="pattern2026" />
    <pattern
       y="0"
       x="0"
       height="6"
       width="6"
       patternUnits="userSpaceOnUse"
       id="pattern2028" />
    <pattern
       y="0"
       x="0"
       height="6"
       width="6"
       patternUnits="userSpaceOnUse"
       id="pattern2030" />
    <pattern
       y="0"
       x="0"
       height="6"
       width="6"
       patternUnits="userSpaceOnUse"
       id="pattern2032" />
    <pattern
       y="0"
       x="0"
       height="6"
       width="6"
       patternUnits="userSpaceOnUse"
       id="pattern2034" />
    <pattern
       y="0"
       x="0"
       height="6"
       width="6"
       patternUnits="userSpaceOnUse"
       id="pattern2036" />
    <pattern
       y="0"
       x="0"
       height="6"
       width="6"
       patternUnits="userSpaceOnUse"
       id="pattern2038" />
    <pattern
       y="0"
       x="0"
       height="6"
       width="6"
       patternUnits="userSpaceOnUse"
       id="pattern2040" />
    <pattern
       y="0"
       x="0"
       height="6"
       width="6"
       patternUnits="userSpaceOnUse"
       id="pattern2042" />
    <pattern
       y="0"
       x="0"
       height="6"
       width="6"
       patternUnits="userSpaceOnUse"
       id="pattern2044" />
    <pattern
       y="0"
       x="0"
       height="6"
       width="6"
       patternUnits="userSpaceOnUse"
       id="pattern2046" />
    <pattern
       y="0"
       x="0"
       height="6"
       width="6"
       patternUnits="userSpaceOnUse"
       id="pattern2048" />
    <pattern
       y="0"
       x="0"
       height="6"
       width="6"
       patternUnits="userSpaceOnUse"
       id="pattern2050" />
    <pattern
       y="0"
       x="0"
       height="6"
       width="6"
       patternUnits="userSpaceOnUse"
       id="pattern2052" />
    <pattern
       y="0"
       x="0"
       height="6"
       width="6"
       patternUnits="userSpaceOnUse"
       id="pattern2054" />
    <pattern
       y="0"
       x="0"
       height="6"
       width="6"
       patternUnits="userSpaceOnUse"
       id="pattern2056" />
    <pattern
       y="0"
       x="0"
       height="6"
       width="6"
       patternUnits="userSpaceOnUse"
       id="pattern2058" />
    <pattern
       y="0"
       x="0"
       height="6"
       width="6"
       patternUnits="userSpaceOnUse"
       id="pattern2060" />
    <pattern
       y="0"
       x="0"
       height="6"
       width="6"
       patternUnits="userSpaceOnUse"
       id="pattern2062" />
    <pattern
       y="0"
       x="0"
       height="6"
       width="6"
       patternUnits="userSpaceOnUse"
       id="pattern2064" />
    <pattern
       y="0"
       x="0"
       height="6"
       width="6"
       patternUnits="userSpaceOnUse"
       id="pattern2066" />
    <pattern
       y="0"
       x="0"
       height="6"
       width="6"
       patternUnits="userSpaceOnUse"
       id="pattern2068" />
    <pattern
       y="0"
       x="0"
       height="6"
       width="6"
       patternUnits="userSpaceOnUse"
       id="pattern2070" />
    <pattern
       y="0"
       x="0"
       height="6"
       width="6"
       patternUnits="userSpaceOnUse"
       id="pattern2072" />
    <pattern
       y="0"
       x="0"
       height="6"
       width="6"
       patternUnits="userSpaceOnUse"
       id="pattern2074" />
    <pattern
       y="0"
       x="0"
       height="6"
       width="6"
       patternUnits="userSpaceOnUse"
       id="pattern2076" />
    <pattern
       y="0"
       x="0"
       height="6"
       width="6"
       patternUnits="userSpaceOnUse"
       id="pattern2078" />
    <pattern
       y="0"
       x="0"
       height="6"
       width="6"
       patternUnits="userSpaceOnUse"
       id="pattern2080" />
    <pattern
       y="0"
       x="0"
       height="6"
       width="6"
       patternUnits="userSpaceOnUse"
       id="pattern2082" />
    <pattern
       y="0"
       x="0"
       height="6"
       width="6"
       patternUnits="userSpaceOnUse"
       id="pattern2084" />
    <pattern
       y="0"
       x="0"
       height="6"
       width="6"
       patternUnits="userSpaceOnUse"
       id="pattern2086" />
    <pattern
       y="0"
       x="0"
       height="6"
       width="6"
       patternUnits="userSpaceOnUse"
       id="pattern2088" />
    <pattern
       y="0"
       x="0"
       height="6"
       width="6"
       patternUnits="userSpaceOnUse"
       id="pattern2090" />
    <pattern
       y="0"
       x="0"
       height="6"
       width="6"
       patternUnits="userSpaceOnUse"
       id="pattern2092" />
    <pattern
       y="0"
       x="0"
       height="6"
       width="6"
       patternUnits="userSpaceOnUse"
       id="pattern2094" />
    <pattern
       y="0"
       x="0"
       height="6"
       width="6"
       patternUnits="userSpaceOnUse"
       id="pattern2096" />
    <pattern
       y="0"
       x="0"
       height="6"
       width="6"
       patternUnits="userSpaceOnUse"
       id="pattern2098" />
    <pattern
       y="0"
       x="0"
       height="6"
       width="6"
       patternUnits="userSpaceOnUse"
       id="pattern2100" />
    <pattern
       y="0"
       x="0"
       height="6"
       width="6"
       patternUnits="userSpaceOnUse"
       id="pattern2102" />
    <pattern
       y="0"
       x="0"
       height="6"
       width="6"
       patternUnits="userSpaceOnUse"
       id="pattern2104" />
    <pattern
       y="0"
       x="0"
       height="6"
       width="6"
       patternUnits="userSpaceOnUse"
       id="pattern2106" />
    <pattern
       y="0"
       x="0"
       height="6"
       width="6"
       patternUnits="userSpaceOnUse"
       id="pattern2108" />
    <pattern
       y="0"
       x="0"
       height="6"
       width="6"
       patternUnits="userSpaceOnUse"
       id="pattern2110" />
    <pattern
       y="0"
       x="0"
       height="6"
       width="6"
       patternUnits="userSpaceOnUse"
       id="pattern2112" />
    <pattern
       y="0"
       x="0"
       height="6"
       width="6"
       patternUnits="userSpaceOnUse"
       id="pattern2114" />
    <pattern
       y="0"
       x="0"
       height="6"
       width="6"
       patternUnits="userSpaceOnUse"
       id="pattern2116" />
    <pattern
       y="0"
       x="0"
       height="6"
       width="6"
       patternUnits="userSpaceOnUse"
       id="pattern2118" />
    <pattern
       y="0"
       x="0"
       height="6"
       width="6"
       patternUnits="userSpaceOnUse"
       id="pattern2120" />
    <pattern
       y="0"
       x="0"
       height="6"
       width="6"
       patternUnits="userSpaceOnUse"
       id="pattern2122" />
    <pattern
       y="0"
       x="0"
       height="6"
       width="6"
       patternUnits="userSpaceOnUse"
       id="pattern2124" />
    <pattern
       y="0"
       x="0"
       height="6"
       width="6"
       patternUnits="userSpaceOnUse"
       id="pattern2126" />
    <pattern
       y="0"
       x="0"
       height="6"
       width="6"
       patternUnits="userSpaceOnUse"
       id="pattern2128" />
    <pattern
       y="0"
       x="0"
       height="6"
       width="6"
       patternUnits="userSpaceOnUse"
       id="pattern2130" />
    <pattern
       y="0"
       x="0"
       height="6"
       width="6"
       patternUnits="userSpaceOnUse"
       id="pattern2132" />
    <pattern
       y="0"
       x="0"
       height="6"
       width="6"
       patternUnits="userSpaceOnUse"
       id="pattern2134" />
    <pattern
       y="0"
       x="0"
       height="6"
       width="6"
       patternUnits="userSpaceOnUse"
       id="pattern2136" />
    <pattern
       y="0"
       x="0"
       height="6"
       width="6"
       patternUnits="userSpaceOnUse"
       id="pattern2138" />
    <pattern
       y="0"
       x="0"
       height="6"
       width="6"
       patternUnits="userSpaceOnUse"
       id="pattern2140" />
    <pattern
       y="0"
       x="0"
       height="6"
       width="6"
       patternUnits="userSpaceOnUse"
       id="pattern2142" />
    <pattern
       y="0"
       x="0"
       height="6"
       width="6"
       patternUnits="userSpaceOnUse"
       id="pattern2144" />
    <pattern
       y="0"
       x="0"
       height="6"
       width="6"
       patternUnits="userSpaceOnUse"
       id="pattern2146" />
  </defs>
  <sodipodi:namedview
     id="base"
     pagecolor="#ffffff"
     bordercolor="#666666"
     borderopacity="1.0"
     inkscape:pageopacity="0.0"
     inkscape:pageshadow="2"
     inkscape:zoom="0.7"
     inkscape:cx="116.83954"
     inkscape:cy="460.17014"
     inkscape:document-units="mm"
     inkscape:current-layer="layer1"
     showgrid="false"
     units="px"
     inkscape:window-width="1920"
     inkscape:window-height="1001"
     inkscape:window-x="-9"
     inkscape:window-y="-9"
     inkscape:window-maximized="1" />
  <metadata
     id="metadata5">
    <rdf:RDF>
      <cc:Work
         rdf:about="">
        <dc:format>image/svg+xml</dc:format>
        <dc:type
           rdf:resource="http://purl.org/dc/dcmitype/StillImage" />
        <dc:title />
      </cc:Work>
    </rdf:RDF>
  </metadata>
  <g
     inkscape:label="Capa 1"
     inkscape:groupmode="layer"
     id="layer1"
     transform="translate(0,-154.12498)">
    <g
       id="fondo"
       inkscape:label="#g209">
      <g
         inkscape:label="#g18116"
         transform="matrix(0.79500407,0,0,0.82126352,-37.767537,153.37398)"
         id="horca">
        <path
           style="opacity:0.872;fill:#a02c2c;fill-opacity:1;stroke:url(#EMFhbasepattern);stroke-width:0.78571427;stroke-linecap:round;stroke-linejoin:miter;stroke-miterlimit:4;stroke-dasharray:none;stroke-dashoffset:0;stroke-opacity:1;paint-order:stroke markers fill"
           d="m 503.56241,117.77465 c -32.21428,-1.08194 -69.01785,-2.33155 -81.78571,-2.77692 -12.76786,-0.44536 -43.6173,-1.4651 -68.55432,-2.26609 -24.93702,-0.80099 -45.38675,-1.51761 -45.44385,-1.5925 -0.0571,-0.0749 -0.329,-3.91147 -0.60422,-8.52574 l -0.50041,-8.389595 8.44426,0.393202 c 4.64434,0.216261 51.19425,1.662888 103.44425,3.214728 52.25,1.55184 104.32143,3.139045 115.71429,3.527115 11.39286,0.38808 22.72321,0.70784 25.17857,0.71058 l 4.46429,0.005 v 8.92857 c 0,6.71726 -0.22113,8.90507 -0.89286,8.8337 -0.49107,-0.0522 -27.25,-0.9801 -59.46429,-2.06204 z"
           id="path161"
           inkscape:connector-curvature="0"
           transform="scale(0.26458333)" />
        <path
           style="opacity:0.51399997;fill:#a02c2c;fill-opacity:1;stroke:url(#EMFhbasepattern);stroke-width:1.11116779;stroke-linecap:round;stroke-linejoin:miter;stroke-miterlimit:4;stroke-dasharray:none;stroke-dashoffset:0;stroke-opacity:1;paint-order:stroke markers fill"
           d="m 380.65273,466.88222 c -135.2683,-13.73282 -140.66256,-14.358 -140.64995,-16.30082 0.007,-1.11116 0.30117,-3.09647 0.65324,-4.41179 0.63191,-2.36078 0.75825,-2.38258 9.8352,-1.6972 12.74612,0.96243 13.73581,1.28604 14.42175,4.71573 0.31993,1.59967 1.01556,2.90849 1.54584,2.90849 0.55463,0 0.66921,-1.34283 0.26976,-3.1615 l -0.69438,-3.16151 4.40219,0.59406 c 2.42121,0.32673 7.58417,0.86793 11.47326,1.20268 11.5751,0.99629 12.62691,1.33794 12.62691,4.10146 0,1.34481 0.45457,2.44512 1.01015,2.44512 0.55558,0 1.01015,-1.18701 1.01015,-2.6378 0,-2.41955 0.27165,-2.59061 3.283,-2.06744 1.80565,0.3137 7.03319,0.87755 11.61675,1.25301 l 8.33376,0.68264 v 2.90002 c 0,1.59501 0.45457,2.90002 1.01015,2.90002 0.55559,0 1.01016,-1.19912 1.01016,-2.66471 v -2.66471 l 7.82868,0.6874 c 19.11667,1.67855 18.43528,1.48317 18.43528,5.28618 0,1.86805 0.45457,3.39646 1.01016,3.39646 0.55558,0 1.01015,-1.50626 1.01015,-3.34723 v -3.34723 l 11.36421,1.26802 c 6.25032,0.69741 12.15972,1.29453 13.13199,1.32693 1.0747,0.0358 1.76776,0.85097 1.76776,2.0792 0,1.11117 0.45457,2.02031 1.01016,2.02031 0.55558,0 1.01015,-0.93977 1.01015,-2.08838 0,-1.50334 0.49522,-1.95024 1.76777,-1.59528 0.97227,0.2712 5.40431,0.78179 9.84898,1.13465 12.67588,1.00632 14.64721,1.50046 14.64721,3.67158 0,1.04933 0.45457,1.90788 1.01016,1.90788 0.55558,0 1.01015,-0.95972 1.01015,-2.13272 0,-1.84802 0.43827,-2.0577 3.283,-1.57066 1.80564,0.30913 9.29802,1.11286 16.64971,1.78605 11.47326,1.05061 13.45045,1.48774 13.95768,3.08589 0.32501,1.02405 1.06351,1.8619 1.6411,1.8619 0.57758,0 0.76778,-0.73586 0.42265,-1.63525 -0.55822,-1.4547 0.23848,-1.56001 7.21553,-0.95373 14.4203,1.25307 14.40902,1.24858 14.40902,5.73186 0,2.1605 0.45457,3.92819 1.01016,3.92819 0.55558,0 1.01015,-1.56416 1.01015,-3.47592 0,-1.91175 0.34093,-3.6836 0.75761,-3.93744 1.03431,-0.63009 24.93048,1.88745 26.37203,2.77837 0.63504,0.39249 1.15463,1.59592 1.15463,2.6743 0,1.07838 0.50756,1.96069 1.12792,1.96069 0.66947,0 0.9242,-1.06565 0.62672,-2.62184 -0.48674,-2.54617 -0.38082,-2.60564 3.6703,-2.06063 2.29433,0.30867 6.89892,0.82575 10.23243,1.14908 13.07533,1.26822 12.6269,1.05142 12.6269,6.10454 0,2.47496 -0.34092,4.44854 -0.75761,4.38575 -0.41669,-0.0628 -64.056,-6.54039 -141.42068,-14.39467 z"
           id="path163"
           inkscape:connector-curvature="0"
           transform="scale(0.26458333)" />
        <path
           style="opacity:0.89899998;fill:#a02c2c;fill-opacity:1;stroke:url(#EMFhbasepattern);stroke-width:1.11116779;stroke-linecap:round;stroke-linejoin:miter;stroke-miterlimit:4;stroke-dasharray:none;stroke-dashoffset:0;stroke-opacity:1;paint-order:stroke markers fill"
           d="m 362.26675,399.82124 c 0.0275,-0.97227 1.31168,-8.70527 2.85376,-17.18444 1.54209,-8.47917 2.61101,-16.73019 2.37539,-18.3356 -0.38093,-2.59539 -0.93465,-2.99482 -4.99594,-3.60385 -4.82244,-0.72316 -5.84771,-0.25783 -6.63395,3.01094 -0.26728,1.11116 -0.57457,-53.89164 -0.68288,-122.22846 -0.10831,-68.33682 -0.45017,-124.88886 -0.75968,-125.67119 -0.46898,-1.18541 0.91228,-1.31834 8.28921,-0.79774 4.86857,0.34358 9.0355,0.80824 9.25983,1.03257 0.22434,0.22433 -0.057,57.4044 -0.62515,127.0668 -0.56816,69.66242 -1.0367,133.81839 -1.04119,142.56883 l -0.008,15.90991 h -4.04061 c -3.19381,0 -4.03014,-0.37048 -3.99063,-1.76777 z"
           id="path165"
           inkscape:connector-curvature="0"
           transform="scale(0.26458333)" />
        <path
           style="opacity:1;fill:#a02c2c;fill-opacity:1;stroke:url(#EMFhbasepattern);stroke-width:1.11116779;stroke-linecap:round;stroke-linejoin:miter;stroke-miterlimit:4;stroke-dasharray:none;stroke-dashoffset:0;stroke-opacity:1;paint-order:stroke markers fill"
           d="m 347.05606,413.51638 c -0.005,-0.72643 1.56937,-8.1393 3.49778,-16.47306 1.92842,-8.33376 4.46965,-19.58433 5.64719,-25.00128 2.11275,-9.71915 2.17983,-9.84898 5.08851,-9.84898 2.15705,0 2.93112,0.47408 2.88634,1.76776 -0.0337,0.97228 -1.9882,12.67742 -4.34342,26.01143 l -4.28221,24.24366 -4.24289,0.31062 c -2.97572,0.21785 -4.24539,-0.0838 -4.2513,-1.01015 z"
           id="path167"
           inkscape:connector-curvature="0"
           transform="scale(0.26458333)" />
        <path
           style="opacity:1;fill:#a02c2c;fill-opacity:1;stroke:url(#EMFhbasepattern);stroke-width:1.11116779;stroke-linecap:round;stroke-linejoin:miter;stroke-miterlimit:4;stroke-dasharray:none;stroke-dashoffset:0;stroke-opacity:1;paint-order:stroke markers fill"
           d="m 405.89718,403.2576 c -3.66293,-0.99071 -5.96174,-3.01792 -15.47809,-13.64935 -6.14693,-6.86721 -12.31121,-13.46209 -13.69839,-14.6553 -2.06213,-1.77377 -2.46332,-2.92001 -2.19959,-6.2845 l 0.32257,-4.11504 16.16244,17.10816 c 16.95291,17.94489 21.40136,23.02316 20.02372,22.85872 -0.45695,-0.0546 -2.76665,-0.62275 -5.13266,-1.26269 z"
           id="path169"
           inkscape:connector-curvature="0"
           transform="scale(0.26458333)" />
        <path
           style="opacity:1;fill:#a02c2c;fill-opacity:1;stroke:url(#EMFhbasepattern);stroke-width:1.11116779;stroke-linecap:round;stroke-linejoin:miter;stroke-miterlimit:4;stroke-dasharray:none;stroke-dashoffset:0;stroke-opacity:1;paint-order:stroke markers fill"
           d="m 318.00855,395.79792 -4.3072,-0.38737 19.229,-15.59859 c 10.57595,-8.57923 19.44636,-15.5986 19.71202,-15.5986 0.26566,0 0.48303,1.27175 0.48303,2.82611 0,2.28656 -2.5713,5.37221 -13.46829,16.16244 -8.77146,8.68553 -14.14362,13.27479 -15.40483,13.15985 -1.06509,-0.0971 -3.87478,-0.35079 -6.24373,-0.56384 z"
           id="path171"
           inkscape:connector-curvature="0"
           transform="scale(0.26458333)" />
        <path
           style="opacity:0.6520004;fill:#a02c2c;fill-opacity:1;stroke:url(#EMFhbasepattern);stroke-width:1.11116779;stroke-linecap:round;stroke-linejoin:miter;stroke-miterlimit:4;stroke-dasharray:none;stroke-dashoffset:0;stroke-opacity:1;paint-order:stroke markers fill"
           d="m 261.80825,536.84375 c -3.27759,-0.47822 -6.07113,-0.991 -6.20786,-1.13951 -0.4502,-0.48897 -2.73694,-68.5352 -2.31727,-68.95486 0.22557,-0.22557 3.61886,0.0661 7.54065,0.6482 l 7.13053,1.05832 0.66203,24.90286 c 0.86402,32.50086 0.83915,44.62892 -0.0912,44.47766 -0.41669,-0.0677 -3.43928,-0.51445 -6.71687,-0.99267 z"
           id="path173"
           inkscape:connector-curvature="0"
           transform="scale(0.26458333)" />
        <path
           style="opacity:0.73999999;fill:#a02c2c;fill-opacity:1;stroke:url(#EMFhbasepattern);stroke-width:1.11116779;stroke-linecap:round;stroke-linejoin:miter;stroke-miterlimit:4;stroke-dasharray:none;stroke-dashoffset:0;stroke-opacity:1;paint-order:stroke markers fill"
           d="m 274.59081,538.11144 c -2.17285,-0.62934 -1.58947,-2.0299 13.89542,-33.35944 l 16.1635,-32.70252 3.1509,0.63018 c 1.73299,0.34659 4.2305,0.63018 5.55001,0.63018 1.31951,0 2.39911,0.51751 2.39911,1.15002 0,0.63251 -6.70489,15.38983 -14.89975,32.79403 l -14.89975,31.644 -4.54568,-0.0648 c -2.50013,-0.0356 -5.56632,-0.36038 -6.81376,-0.72169 z"
           id="path175"
           inkscape:connector-curvature="0"
           transform="scale(0.26458333)" />
        <path
           style="opacity:0.69899998;fill:#a02c2c;fill-opacity:1;stroke:url(#EMFhbasepattern);stroke-width:1.11116779;stroke-linecap:round;stroke-linejoin:miter;stroke-miterlimit:4;stroke-dasharray:none;stroke-dashoffset:0;stroke-opacity:1;paint-order:stroke markers fill"
           d="m 503.46975,564.48974 -5.72422,-0.36197 0.45004,-25.45846 c 0.24752,-14.00215 0.71119,-30.1652 1.03038,-35.9179 l 0.58034,-10.45946 3.05234,0.61047 c 1.67879,0.33576 4.58651,0.61047 6.4616,0.61047 h 3.40927 v 35.86041 c 0,33.55211 -0.11379,35.84812 -1.76777,35.66941 -0.97227,-0.10505 -4.34366,-0.35389 -7.49198,-0.55297 z"
           id="path181"
           inkscape:connector-curvature="0"
           transform="scale(0.26458333)" />
        <path
           style="opacity:0.91600001;fill:#a02c2c;fill-opacity:1;stroke:url(#EMFhbasepattern);stroke-width:0.39285713;stroke-linecap:round;stroke-linejoin:miter;stroke-miterlimit:4;stroke-dasharray:none;stroke-dashoffset:0;stroke-opacity:1;paint-order:stroke markers fill"
           d="m 509.35842,469.07918 c -6.10226,-0.64883 -11.36761,-1.23736 -11.70076,-1.30783 -0.43346,-0.0917 6.59812,-8.30464 24.7242,-28.87812 21.00328,-23.83914 25.25075,-28.8324 24.8663,-29.23242 -0.57145,-0.5946 2.31511,-3.75734 -27.49455,30.12528 -13.30685,15.125 -24.49922,27.55134 -24.87192,27.61408 -0.56753,0.0956 -25.78346,-2.33176 -26.42693,-2.54387 -0.11713,-0.0386 13.10055,-13.65057 29.37264,-30.24878 16.27208,-16.59822 29.53644,-30.32924 29.47636,-30.51339 -0.0601,-0.18416 -0.2791,-0.39145 -0.4867,-0.46065 -0.20761,-0.0692 -11.83408,11.57254 -25.83661,25.87054 -14.00252,14.29799 -27.50354,28.06491 -30.00225,30.59314 l -4.54311,4.59678 -11.20511,-1.1217 c -13.2177,-1.32318 -13.52653,-1.36739 -13.52653,-1.93629 0,-0.24156 13.49351,-13.92084 29.98559,-30.39839 16.49207,-16.47755 29.90222,-30.09406 29.80035,-30.2589 -0.10188,-0.16484 -0.377,-0.29971 -0.61138,-0.29971 -0.71419,0 -60.60313,60.11584 -60.60313,60.83273 0,0.52047 -0.19884,0.61363 -0.98214,0.46017 -0.54018,-0.10583 -7.73215,-0.8529 -15.98215,-1.66015 -8.25,-0.80726 -15.19186,-1.5285 -15.42635,-1.60276 -0.2345,-0.0743 11.86139,-12.2986 26.87974,-27.1652 21.8622,-21.64128 27.22519,-27.12767 26.90025,-27.51919 -0.32588,-0.39267 -3.49397,2.5543 -16.08001,14.95769 -8.62079,8.49569 -21.18605,20.85909 -27.9228,27.47422 l -12.24864,12.02752 -12.9366,-1.31323 c -7.11512,-0.72228 -12.94886,-1.4522 -12.96385,-1.62205 -0.015,-0.16986 14.17277,-13.39722 31.52836,-29.39414 17.35559,-15.99693 31.60916,-29.23734 31.6746,-29.42314 0.0654,-0.1858 -0.12595,-0.4318 -0.42531,-0.54668 -0.3734,-0.14328 -10.70919,9.16441 -32.91636,29.64217 -32.32351,29.80628 -32.37401,29.85076 -33.68182,29.66728 -0.72038,-0.10107 -6.21156,-0.66715 -12.20263,-1.25798 -5.99108,-0.59082 -11.09671,-1.11058 -11.34586,-1.15502 -0.33104,-0.0591 47.88455,-40.97084 51.97555,-44.10216 0.51364,-0.39316 0.52226,-0.513 0.0683,-0.94977 -0.44944,-0.43247 -4.15423,2.55683 -27.48375,22.1759 l -26.96428,22.67574 -1.60715,-0.19191 c -0.88393,-0.10556 -6.79555,-0.7125 -13.13695,-1.34877 l -11.52981,-1.15685 0.81552,-0.78212 c 0.44854,-0.43017 14.95839,-12.87517 32.2441,-27.65554 17.28571,-14.78038 31.46613,-26.97317 31.51205,-27.09509 0.0459,-0.12192 -0.0571,-0.44391 -0.22896,-0.71553 -0.23579,-0.3727 -8.22921,6.27798 -32.58348,27.11007 -17.74907,15.18215 -32.61052,27.90715 -33.02544,28.27777 -0.74068,0.6616 -0.98098,0.65075 -13.21428,-0.5967 -6.85294,-0.69881 -12.6787,-1.30871 -12.94614,-1.35535 -0.26743,-0.0466 9.37542,-8.17546 21.42857,-18.06405 12.05315,-9.8886 21.96837,-18.12512 22.03381,-18.30339 0.0654,-0.17826 -0.12868,-0.41916 -0.43138,-0.53531 -0.37071,-0.14226 -7.69585,5.6445 -22.44041,17.72758 -12.03953,9.86633 -22.0828,18.17729 -22.31838,18.4688 -0.37661,0.46602 -1.9707,0.37176 -13.20164,-0.7806 -7.02532,-0.72084 -12.82448,-1.36179 -12.88702,-1.42433 -0.0625,-0.0625 17.04784,-12.76423 38.02307,-28.22597 34.8123,-25.66165 40.01483,-29.6962 37.66003,-29.20527 -0.2622,0.0547 -17.93629,12.97199 -39.27575,28.70518 l -38.79901,28.60579 -11.43854,-1.14239 c -6.29119,-0.62831 -11.58051,-1.17779 -11.75405,-1.22106 -0.17354,-0.0433 17.85775,-13.93311 40.06952,-30.86628 l 40.38504,-30.78759 1.89476,0.2777 1.89477,0.27771 -6.78571,5.0992 c -5.87603,4.41561 -6.9461,5.37185 -7.98207,7.13292 -0.65799,1.11854 -1.43704,2.30474 -1.73122,2.636 -0.48788,0.54936 -0.42982,0.62013 0.66063,0.80531 0.65753,0.11166 4.3894,0.52207 8.29304,0.91202 l 7.09752,0.70901 1.65248,-1.39683 c 0.90886,-0.76826 2.5364,-2.30625 3.61676,-3.41776 1.08036,-1.11151 4.13393,-4.07399 6.78572,-6.58329 l 4.82142,-4.56236 4.06144,0.46772 c 2.23379,0.25725 4.10627,0.51507 4.16105,0.57295 0.0548,0.0579 -1.6519,7.17666 -3.79265,15.81951 -2.14075,8.64286 -3.89269,15.97834 -3.8932,16.30108 -3.5e-4,0.32273 0.25329,0.68434 0.564,0.80357 0.31071,0.11923 3.28392,0.21678 6.60715,0.21678 5.12759,0 6.04221,-0.0809 6.04221,-0.53468 0,-0.29408 0.57066,-1.16634 1.26814,-1.93836 1.17075,-1.29588 1.32996,-1.75533 2.07334,-5.98317 l 0.80521,-4.5795 2.48022,-0.2235 c 1.36413,-0.12292 3.84631,-0.2474 5.51595,-0.27662 l 3.03572,-0.0531 2.73556,-3.8504 c 2.16712,-3.05029 2.79022,-4.21486 2.99858,-5.60431 0.23033,-1.53597 0.58103,-2.08824 2.82221,-4.44441 2.0802,-2.18692 2.73271,-2.66993 3.48623,-2.58067 0.69789,0.0827 2.76009,2.15719 8.34303,8.39286 4.07881,4.55567 7.52425,8.41093 7.65654,8.56724 0.25127,0.29689 17.51167,5.00732 17.66896,4.82193 0.0495,-0.0584 0.33694,-1.46614 0.6387,-3.12837 l 0.54865,-3.02224 -5.90286,-6.36938 c -3.24657,-3.50315 -5.80793,-6.46429 -5.69192,-6.58031 0.11602,-0.11602 18.33623,1.50752 40.48934,3.60787 105.40183,9.9932 130.2949,12.36709 130.50058,12.445 0.12219,0.0463 -12.18944,14.70915 -27.35919,32.58415 l -27.58137,32.5 -1.56938,0.0578 c -0.86316,0.0318 -6.56214,-0.47304 -12.66441,-1.12188 z"
           id="path183"
           inkscape:connector-curvature="0"
           transform="scale(0.26458333)" />
        <path
           style="opacity:1;fill:#a02c2c;fill-opacity:1;stroke:url(#EMFhbasepattern);stroke-width:0.39285713;stroke-linecap:round;stroke-linejoin:miter;stroke-miterlimit:4;stroke-dasharray:none;stroke-dashoffset:0;stroke-opacity:1;paint-order:stroke markers fill"
           d="m 521.43559,492.9269 c -0.44196,-0.0851 -0.80357,-0.30431 -0.80357,-0.48708 0,-0.18277 -1.48661,-0.32807 -3.30357,-0.32289 -2.46658,0.007 -264.39786,-27.34368 -264.79785,-27.65003 -0.19442,-0.14891 -1.15082,-8.58333 -0.99136,-8.74279 0.10421,-0.10421 12.59896,1.05656 27.76613,2.57949 150.52173,15.11384 244.26056,24.5182 244.38745,24.5182 0.22449,0 0.18746,3.3402 -0.0786,7.08799 -0.24682,3.47711 -0.19109,3.39993 -2.17867,3.01711 z"
           id="path185"
           inkscape:connector-curvature="0"
           transform="scale(0.26458333)" />
        <path
           style="opacity:1;fill:#a02c2c;fill-opacity:1;stroke:url(#EMFhbasepattern);stroke-width:0.39285713;stroke-linecap:round;stroke-linejoin:miter;stroke-miterlimit:4;stroke-dasharray:none;stroke-dashoffset:0;stroke-opacity:1;paint-order:stroke markers fill"
           d="m 270.51477,504.6968 c -0.342,-17.04018 -0.61624,-32.16584 -0.60942,-33.61258 l 0.0124,-2.63043 2.05357,0.24619 c 1.12946,0.13541 2.41845,0.33289 2.86442,0.43884 l 0.81086,0.19265 -0.0223,23.3968 c -0.0123,12.86824 0.0648,23.48392 0.17129,23.5904 0.10648,0.10649 0.19361,2.31293 0.19361,4.9032 v 4.70959 l -2.31585,4.87374 c -1.27372,2.68056 -2.36555,4.87375 -2.4263,4.87375 -0.0608,0 -0.39026,-13.94197 -0.73225,-30.98215 z"
           id="path187"
           inkscape:connector-curvature="0"
           transform="scale(0.26458333)" />
        <path
           style="opacity:0.672;fill:#a02c2c;fill-opacity:1;stroke:url(#EMFhbasepattern);stroke-width:0.39285713;stroke-linecap:round;stroke-linejoin:miter;stroke-miterlimit:4;stroke-dasharray:none;stroke-dashoffset:0;stroke-opacity:1;paint-order:stroke markers fill"
           d="m 277.43693,489.00277 0.0192,-4.57382 7.14293,-6.07143 c 9.85879,-8.37988 8.3341,-7.52289 12.41128,-6.97612 1.89372,0.25395 3.65211,0.57232 3.90755,0.70748 0.30568,0.16175 -3.41032,3.71655 -10.87166,10.40005 -6.23484,5.58487 -11.62687,10.36431 -11.98228,10.62098 -0.61441,0.44372 -0.64526,0.24168 -0.62701,-4.10714 z"
           id="path189"
           inkscape:connector-curvature="0"
           transform="scale(0.26458333)" />
        <path
           style="opacity:1;fill:#a02c2c;fill-opacity:1;stroke:url(#EMFhbasepattern);stroke-width:0.39285713;stroke-linecap:round;stroke-linejoin:miter;stroke-miterlimit:4;stroke-dasharray:none;stroke-dashoffset:0;stroke-opacity:1;paint-order:stroke markers fill"
           d="m 288.13202,538.06787 c 0,-0.0611 6.80799,-14.4852 15.12887,-32.05357 12.92886,-27.29749 15.24575,-31.95985 15.93264,-32.06183 0.44207,-0.0656 0.74569,0.0328 0.6747,0.21887 -0.071,0.18602 -6.54017,14.25572 -14.37596,31.26599 -13.53284,29.37768 -14.31558,30.97323 -15.61734,31.8347 -1.28499,0.85036 -1.74291,1.05945 -1.74291,0.79584 z"
           id="path191"
           inkscape:connector-curvature="0"
           transform="scale(0.26458333)" />
        <path
           style="opacity:1;fill:#a02c2c;fill-opacity:1;stroke:url(#EMFhbasepattern);stroke-width:0.39285713;stroke-linecap:round;stroke-linejoin:miter;stroke-miterlimit:4;stroke-dasharray:none;stroke-dashoffset:0;stroke-opacity:1;paint-order:stroke markers fill"
           d="m 514.20847,563.49557 c 0.003,-0.46879 0.32193,-15.39698 0.70927,-33.17377 0.38733,-17.77678 0.70628,-33.28571 0.70877,-34.46428 l 0.005,-2.14286 1.94941,0.12145 c 1.88557,0.11747 1.94462,0.15256 1.80325,1.07143 -0.0804,0.52249 -0.25218,8.82498 -0.38175,18.44998 -0.12958,9.625 -0.2933,20.07143 -0.36384,23.21428 -0.0705,3.14286 -0.14001,9.65179 -0.15441,14.46429 l -0.0262,8.75 -2.12705,2.28091 c -1.83791,1.97086 -2.12636,2.16505 -2.12202,1.42857 z"
           id="path193"
           inkscape:connector-curvature="0"
           transform="scale(0.26458333)" />
        <path
           style="opacity:1;fill:#a02c2c;fill-opacity:1;stroke:url(#EMFhbasepattern);stroke-width:0.39285713;stroke-linecap:round;stroke-linejoin:miter;stroke-miterlimit:4;stroke-dasharray:none;stroke-dashoffset:0;stroke-opacity:1;paint-order:stroke markers fill"
           d="m 520.63202,512.26612 v -5.35727 l 13.76626,-18.01837 13.76627,-18.01838 5.43016,0.11612 c 2.98659,0.0639 5.48131,0.16531 5.54383,0.22542 0.10624,0.10216 -36.37371,44.16955 -37.83592,45.70538 -0.65754,0.69065 -0.6706,0.60003 -0.6706,-4.6529 z"
           id="path195"
           inkscape:connector-curvature="0"
           transform="scale(0.26458333)" />
        <path
           style="opacity:1;fill:#a02c2c;fill-opacity:1;stroke:url(#EMFhbasepattern);stroke-width:0.27779195;stroke-linecap:round;stroke-linejoin:miter;stroke-miterlimit:4;stroke-dasharray:none;stroke-dashoffset:0;stroke-opacity:1;paint-order:stroke markers fill"
           d="m 524.85682,480.29578 c -0.0686,-0.17872 -0.0934,-2.21501 -0.0552,-4.52509 l 0.0695,-4.20015 27.14784,-31.99939 27.14785,-31.99938 0.0826,1.61108 c 0.0454,0.88609 0.007,2.65569 -0.0856,3.93244 l -0.16822,2.32136 -12.87371,15.60884 c -7.54019,9.14218 -14.11548,16.86436 -15.87102,18.63931 -2.09886,2.12207 -3.02116,3.23515 -3.07686,3.71333 -0.054,0.46348 -3.59997,4.94622 -11.03704,13.95273 -6.02663,7.29843 -11.00204,13.26986 -11.05647,13.26986 -0.0544,0 -0.15508,-0.14622 -0.22366,-0.32494 z"
           id="path197"
           inkscape:connector-curvature="0"
           transform="scale(0.26458333)" />
        <path
           style="opacity:1;fill:#a02c2c;fill-opacity:1;stroke:url(#EMFhbasepattern);stroke-width:0.27779195;stroke-linecap:round;stroke-linejoin:miter;stroke-miterlimit:4;stroke-dasharray:none;stroke-dashoffset:0;stroke-opacity:1;paint-order:stroke markers fill"
           d="m 563.27752,497.35137 c -0.0899,-2.3265 -0.50407,-16.14918 -0.92035,-30.71705 l -0.75688,-26.48704 0.8283,-1.04648 c 2.50274,-3.16201 4.36226,-5.41166 4.42297,-5.35094 0.0379,0.0379 -0.15754,14.54752 -0.43429,32.24363 l -0.50319,32.17474 -1.16606,1.70658 c -0.64133,0.93862 -1.19777,1.70658 -1.23653,1.70658 -0.0388,0 -0.14405,-1.90351 -0.23397,-4.23002 z"
           id="path199"
           inkscape:connector-curvature="0"
           transform="scale(0.26458333)" />
        <path
           style="opacity:0.55400002;fill:#a02c2c;fill-opacity:1;stroke:url(#EMFhbasepattern);stroke-width:0.55558389;stroke-linecap:round;stroke-linejoin:miter;stroke-miterlimit:4;stroke-dasharray:none;stroke-dashoffset:0;stroke-opacity:1;paint-order:stroke markers fill"
           d="m 520.40723,528.38524 v -7.91005 l 2.37723,-2.92384 c 1.30747,-1.60811 10.21361,-12.32569 19.79141,-23.81684 13.84002,-16.60483 17.48455,-20.69956 17.75698,-19.95051 0.18854,0.51836 0.49405,3.21533 0.67892,5.99325 l 0.33613,5.05076 -20.01574,25.25381 c -11.00866,13.8896 -20.22031,25.46974 -20.47034,25.73364 -0.27048,0.28549 -0.45459,-2.72378 -0.45459,-7.43022 z"
           id="path201"
           inkscape:connector-curvature="0"
           transform="scale(0.26458333)" />
        <path
           style="opacity:0.5270004;fill:#a02c2c;fill-opacity:1;stroke:url(#EMFhbasepattern);stroke-width:0.55558389;stroke-linecap:round;stroke-linejoin:miter;stroke-miterlimit:4;stroke-dasharray:none;stroke-dashoffset:0;stroke-opacity:1;paint-order:stroke markers fill"
           d="m 554.37361,469.53291 -5.68211,-0.14281 v -7.60001 -7.60002 l 3.73558,-4.379 c 2.05457,-2.40846 4.52848,-5.13686 5.49758,-6.06312 l 1.762,-1.68412 0.3658,12.79579 c 0.2012,7.03769 0.28423,13.25036 0.18453,13.80595 -0.17045,0.9498 -0.52074,1.00162 -5.86338,0.86734 z"
           id="path203"
           inkscape:connector-curvature="0"
           transform="scale(0.26458333)" />
        <path
           style="opacity:1;fill:#a02c2c;fill-opacity:1;stroke:url(#EMFhbasepattern);stroke-width:0.55558389;stroke-linecap:round;stroke-linejoin:miter;stroke-miterlimit:4;stroke-dasharray:none;stroke-dashoffset:0;stroke-opacity:1;paint-order:stroke markers fill"
           d="m 555.25749,503.05752 c -3.45446,-0.41 -4.75963,-0.75353 -4.66041,-1.22665 0.11895,-0.5672 8.14255,-11.10562 10.04757,-13.19675 0.56441,-0.61955 0.67375,0.54847 0.67375,7.19734 0,6.05051 -0.15005,7.92011 -0.63134,7.86623 -0.34724,-0.0389 -2.79055,-0.32696 -5.42957,-0.64017 z"
           id="path205"
           inkscape:connector-curvature="0"
           transform="scale(0.26458333)" />
        <path
           style="opacity:1;fill:#a02c2c;fill-opacity:1;stroke:url(#EMFhbasepattern);stroke-width:0.55558389;stroke-linecap:round;stroke-linejoin:miter;stroke-miterlimit:4;stroke-dasharray:none;stroke-dashoffset:0;stroke-opacity:1;paint-order:stroke markers fill"
           d="m 277.22203,509.19733 c -0.18127,-2.01366 -0.25746,-5.8092 -0.16931,-8.43454 l 0.16028,-4.77334 11.61676,-10.44446 c 6.38921,-5.74446 11.68668,-10.38294 11.77214,-10.30774 0.0855,0.0752 -3.35575,7.15617 -7.64714,15.73549 l -7.80252,15.59875 -3.80031,3.14351 -3.80032,3.14351 z"
           id="path207"
           inkscape:connector-curvature="0"
           transform="scale(0.26458333)" />
        <path
           style="opacity:0.51700003;fill:#a02c2c;fill-opacity:1;stroke:url(#EMFhbasepattern);stroke-width:0.39285713;stroke-linecap:round;stroke-linejoin:miter;stroke-miterlimit:4;stroke-dasharray:none;stroke-dashoffset:0;stroke-opacity:1;paint-order:stroke markers fill"
           d="m 372.32944,345.77118 c -0.002,-8.54465 0.23054,-45.99108 0.51606,-83.21429 0.28552,-37.22321 0.52286,-70.53125 0.52742,-74.01786 l 0.008,-6.33928 h 2.5 2.5 l -0.0139,2.76785 c -0.008,1.52233 -0.46885,40.80405 -1.02487,87.29273 l -1.01093,84.52486 -1.49599,1.59612 c -0.8228,0.87786 -1.72258,1.89524 -1.9995,2.26084 -0.43572,0.57526 -0.50391,-1.42657 -0.50656,-14.87097 z"
           id="path209"
           inkscape:connector-curvature="0"
           transform="scale(0.26458333)" />
        <path
           style="opacity:1;fill:#a02c2c;fill-opacity:1;stroke:url(#EMFhbasepattern);stroke-width:0.39285713;stroke-linecap:round;stroke-linejoin:miter;stroke-miterlimit:4;stroke-dasharray:none;stroke-dashoffset:0;stroke-opacity:1;paint-order:stroke markers fill"
           d="m 398.20264,386.99036 c -10.01785,-10.69166 -19.5378,-20.86648 -21.15543,-22.61072 l -2.94115,-3.17135 1.38768,-1.55785 c 0.76323,-0.85681 1.45589,-1.47748 1.53926,-1.37926 0.76028,0.89575 37.58693,40.9719 38.90305,42.33578 l 1.73705,1.80007 -0.40953,2.03921 c -0.22525,1.12157 -0.50788,2.02668 -0.62809,2.01135 -0.1202,-0.0153 -8.41498,-8.77558 -18.43284,-19.46723 z"
           id="path211"
           inkscape:connector-curvature="0"
           transform="scale(0.26458333)" />
        <path
           style="opacity:0.47300002;fill:#a02c2c;fill-opacity:1;stroke:url(#EMFhbasepattern);stroke-width:0.39285713;stroke-linecap:round;stroke-linejoin:miter;stroke-miterlimit:4;stroke-dasharray:none;stroke-dashoffset:0;stroke-opacity:1;paint-order:stroke markers fill"
           d="m 371.97912,382.11046 c 0.0146,-9.67411 0.15515,-18.3125 0.31244,-19.19643 0.2006,-1.12739 0.29931,0.20927 0.33067,4.47771 l 0.0447,6.08486 1.78571,1.75886 1.78572,1.75886 v 8.54483 8.54483 l -2.02169,2.80788 c -1.11194,1.54434 -2.07622,2.80789 -2.14286,2.80789 -0.0666,0 -0.10925,-7.91518 -0.0947,-17.58929 z"
           id="path213"
           inkscape:connector-curvature="0"
           transform="scale(0.26458333)" />
        <path
           style="opacity:1;fill:#a02c2c;fill-opacity:1;stroke:url(#EMFhbasepattern);stroke-width:0.39285713;stroke-linecap:round;stroke-linejoin:miter;stroke-miterlimit:4;stroke-dasharray:none;stroke-dashoffset:0;stroke-opacity:1;paint-order:stroke markers fill"
           d="m 377.30979,384.00404 c 0,-3.41498 0.062,-6.14209 0.13773,-6.06025 0.0758,0.0819 1.02916,1.93247 2.11868,4.1125 l 1.98093,3.96368 -2.11867,2.09657 -2.11867,2.09656 z"
           id="path215"
           inkscape:connector-curvature="0"
           transform="scale(0.26458333)" />
        <path
           style="opacity:0.51000001;fill:#a02c2c;fill-opacity:1;stroke:url(#EMFhbasepattern);stroke-width:0.39285713;stroke-linecap:round;stroke-linejoin:miter;stroke-miterlimit:4;stroke-dasharray:none;stroke-dashoffset:0;stroke-opacity:1;paint-order:stroke markers fill"
           d="m 373.51939,164.98092 c 0.13852,-9.27392 0.31408,-16.9239 0.39013,-16.99995 0.076,-0.0761 1.19365,-0.52135 2.48355,-0.98956 l 2.34529,-0.8513 v 6.54301 c 0,3.59865 -0.10632,11.63171 -0.23626,17.85124 l -0.23625,11.30824 h -2.49916 -2.49916 z"
           id="path217"
           inkscape:connector-curvature="0"
           transform="scale(0.26458333)" />
        <path
           style="opacity:1;fill:#a02c2c;fill-opacity:1;stroke:url(#EMFhbasepattern);stroke-width:0.39285713;stroke-linecap:round;stroke-linejoin:miter;stroke-miterlimit:4;stroke-dasharray:none;stroke-dashoffset:0;stroke-opacity:1;paint-order:stroke markers fill"
           d="m 373.97018,143.07713 c -0.1275,-0.93025 -0.23182,-3.15876 -0.23182,-4.95224 V 134.864 l 3.30357,-2.47371 c 1.81696,-1.36054 7.02924,-5.657 11.58283,-9.54768 l 8.27927,-7.07397 2.8855,0.26912 2.88551,0.26913 -14.23651,14.2308 -14.23652,14.2308 z"
           id="path219"
           inkscape:connector-curvature="0"
           transform="scale(0.26458333)" />
        <path
           style="opacity:1;fill:#a02c2c;fill-opacity:1;stroke:url(#EMFhbasepattern);stroke-width:0.39285713;stroke-linecap:round;stroke-linejoin:miter;stroke-miterlimit:4;stroke-dasharray:none;stroke-dashoffset:0;stroke-opacity:1;paint-order:stroke markers fill"
           d="m 342.27363,131.22264 c -5.97119,-6.23384 -12.12439,-12.66241 -13.67378,-14.28571 l -2.81708,-2.95147 h 4.80718 4.80718 l 8.99204,9.51021 8.99204,9.51022 v 4.7755 c 0,2.62652 -0.0564,4.7755 -0.12544,4.7755 -0.069,0 -5.01096,-5.10041 -10.98214,-11.33425 z"
           id="path221"
           inkscape:connector-curvature="0"
           transform="scale(0.26458333)" />
        <path
           style="opacity:0.44299999;fill:#a02c2c;fill-opacity:1;stroke:url(#EMFhbasepattern);stroke-width:0.39285713;stroke-linecap:round;stroke-linejoin:miter;stroke-miterlimit:4;stroke-dasharray:none;stroke-dashoffset:0;stroke-opacity:1;paint-order:stroke markers fill"
           d="M 435.70264,96.831878 C 367.14907,94.714863 310.97943,92.95484 310.88121,92.920716 c -0.0982,-0.03412 0.625,-0.358559 1.60715,-0.720968 2.3584,-0.870246 4.76833,-0.870707 34.46428,-0.0066 55.88719,1.626262 173.32417,4.936252 197.14286,5.55652 11.88393,0.309472 22.15858,0.646511 22.83255,0.748976 l 1.22542,0.1863 -1.90748,1.043109 c -1.51668,0.829397 -2.3165,1.033867 -3.90398,0.998017 -1.09808,-0.0248 -58.0858,-1.777192 -126.63937,-3.894208 z"
           id="path223"
           inkscape:connector-curvature="0"
           transform="scale(0.26458333)" />
        <path
           style="opacity:0.48300003;fill:#a02c2c;fill-opacity:1;stroke:url(#EMFhbasepattern);stroke-width:0.27779195;stroke-linecap:round;stroke-linejoin:miter;stroke-miterlimit:4;stroke-dasharray:none;stroke-dashoffset:0;stroke-opacity:1;paint-order:stroke markers fill"
           d="m 565.0729,110.70912 v -8.83941 l 2.66627,-1.43017 c 1.46645,-0.786594 2.71235,-1.384101 2.76865,-1.327794 0.0563,0.05631 0.0316,3.758054 -0.0549,8.226104 l -0.15727,8.12373 -2.15208,1.71348 c -1.18364,0.94242 -2.35876,1.86198 -2.61138,2.04348 -0.44158,0.31726 -0.4593,-0.0111 -0.4593,-8.50942 z"
           id="path225"
           inkscape:connector-curvature="0"
           transform="scale(0.26458333)" />
        <path
           style="opacity:0.48600003;fill:#a02c2c;fill-opacity:1;stroke:url(#EMFhbasepattern);stroke-width:0.27779195;stroke-linecap:round;stroke-linejoin:miter;stroke-miterlimit:4;stroke-dasharray:none;stroke-dashoffset:0;stroke-opacity:1;paint-order:stroke markers fill"
           d="m 373.64958,130.3308 c 3.2e-4,-1.57078 0.0753,-5.49814 0.1666,-8.72747 l 0.16602,-5.87151 h 2.0791 2.07909 l 0.1561,4.48255 c 0.0859,2.46541 0.21965,5.57402 0.29732,6.90803 l 0.14121,2.42547 -2.22734,1.62639 c -1.22504,0.89452 -2.36939,1.71327 -2.54301,1.81945 -0.24532,0.15003 -0.31554,-0.44343 -0.31509,-2.66291 z"
           id="path227"
           inkscape:connector-curvature="0"
           transform="scale(0.26458333)" />
        <path
           style="opacity:0.6520004;fill:#a02c2c;fill-opacity:1;stroke:url(#EMFhbasepattern);stroke-width:0.27779195;stroke-linecap:round;stroke-linejoin:miter;stroke-miterlimit:4;stroke-dasharray:none;stroke-dashoffset:0;stroke-opacity:1;paint-order:stroke markers fill"
           d="m 345.31441,122.58612 c -4.4029,-4.66364 -7.98262,-8.48868 -7.95495,-8.50009 0.0277,-0.0114 0.69724,0.0234 1.48793,0.0774 l 1.43762,0.0982 6.51733,7.07879 c 3.58454,3.89333 6.59458,7.26404 6.68899,7.49047 0.2367,0.5677 0.24864,2.00025 0.0177,2.12897 -0.10417,0.0581 -3.79177,-3.71013 -8.19467,-8.37377 z"
           id="path229"
           inkscape:connector-curvature="0"
           transform="scale(0.26458333)" />
        <path
           style="opacity:0.61100003;fill:#a02c2c;fill-opacity:1;stroke:url(#EMFhbasepattern);stroke-width:0.27779195;stroke-linecap:round;stroke-linejoin:miter;stroke-miterlimit:4;stroke-dasharray:none;stroke-dashoffset:0;stroke-opacity:1;paint-order:stroke markers fill"
           d="m 389.87457,130.95535 c 7.88235,-7.88771 14.33154,-14.48298 14.33154,-14.65614 0,-0.22346 0.54981,-0.31485 1.89404,-0.31485 1.04172,0 1.89403,0.0902 1.89403,0.2005 0,0.11027 -6.44919,6.62036 -14.33154,14.46686 -12.57641,12.51922 -14.42432,14.26608 -15.08915,14.26401 -0.41669,-0.001 -1.269,0.0839 -1.89404,0.18928 -1.12915,0.1904 -1.04482,0.1 13.19512,-14.14966 z"
           id="path233"
           inkscape:connector-curvature="0"
           transform="scale(0.26458333)" />
        <path
           style="opacity:0;fill:#a02c2c;fill-opacity:1;stroke:url(#EMFhbasepattern);stroke-width:0.27779195;stroke-linecap:round;stroke-linejoin:miter;stroke-miterlimit:4;stroke-dasharray:none;stroke-dashoffset:0;stroke-opacity:1;paint-order:stroke markers fill"
           d="m 373.7941,132.25819 c -0.17268,-0.68802 0.0466,-13.68921 0.26068,-15.45308 l 0.13024,-1.07329 h 2.00483 2.00483 l 0.0109,2.71479 c 0.006,1.49313 0.11226,4.58988 0.23618,6.88166 0.2584,4.779 0.58759,4.00602 -2.68316,6.30037 l -1.80475,1.26599 -0.15973,-0.63644 z"
           id="path235"
           inkscape:connector-curvature="0"
           transform="scale(0.26458333)" />
        <path
           style="opacity:0;fill:#a02c2c;fill-opacity:1;fill-rule:evenodd;stroke:url(#EMFhbasepattern);stroke-width:2.69966269;stroke-linecap:round;stroke-linejoin:miter;stroke-miterlimit:4;stroke-dasharray:none;stroke-dashoffset:0;stroke-opacity:1;paint-order:stroke markers fill"
           d="m 439.94117,115.40199 c -12.73226,-0.50325 -15.91808,-0.84617 -18.63897,-2.00624 -1.80501,-0.76958 -4.69787,-1.71595 -6.42857,-2.10304 -8.04308,-1.79892 -31.15725,-2.94942 -68.32532,-3.40087 -29.50056,-0.35831 -38.75,-0.67619 -38.75,-1.33172 0,-1.38638 4.36327,-1.7455 21.42857,-1.76366 38.74541,-0.0412 72.76674,-2.55409 80.96683,-5.980305 1.87801,-0.784683 5.53949,-0.85041 19.30131,-0.34648 9.60621,0.351761 17.61482,0.95971 18.4367,1.399566 1.83951,0.984469 9.99319,3.191439 13.96495,3.779909 6.50292,0.96349 54.63451,2.55769 77.50878,2.56722 19.67846,0.008 24.10715,0.18603 24.10715,0.96802 0,0.76619 -3.89656,1.05186 -19.46429,1.42696 -26.82381,0.64631 -52.8378,1.74244 -62.90039,2.65039 -8.46142,0.76347 -20.28646,2.99332 -22.68709,4.2781 -0.70559,0.37761 -1.7058,0.63766 -2.2227,0.57787 -0.5169,-0.0598 -7.85053,-0.38186 -16.29696,-0.71572 z"
           id="path9454"
           inkscape:connector-curvature="0"
           transform="scale(0.26458333)" />
        <path
           style="opacity:0.5270004;fill:#a02c2c;fill-opacity:1;fill-rule:evenodd;stroke:url(#EMFhbasepattern);stroke-width:2.69966269;stroke-linecap:round;stroke-linejoin:miter;stroke-miterlimit:4;stroke-dasharray:none;stroke-dashoffset:0;stroke-opacity:1;paint-order:stroke markers fill"
           d="m 354.39988,405.58399 c -0.25945,-4.54257 -0.92546,-9.34516 -1.48002,-10.67241 -0.90827,-2.1738 -0.83724,-3.18003 0.71603,-10.14327 2.09748,-9.40298 3.04069,-11.81064 3.1114,-7.94226 0.0502,2.74826 1.11615,5.86733 2.63562,7.71226 0.83322,1.01168 0.30329,5.96157 -1.52939,14.28564 -0.21624,0.98214 -0.54621,2.91071 -0.73326,4.28571 -0.54805,4.02845 -1.72659,10.21149 -1.99818,10.48308 -0.13777,0.13776 -0.46276,-3.46617 -0.7222,-8.00875 z"
           id="path9460"
           inkscape:connector-curvature="0"
           transform="scale(0.26458333)" />
        <path
           style="opacity:0.5270004;fill:#a02c2c;fill-opacity:1;fill-rule:evenodd;stroke:url(#EMFhbasepattern);stroke-width:2.69966269;stroke-linecap:round;stroke-linejoin:miter;stroke-miterlimit:4;stroke-dasharray:none;stroke-dashoffset:0;stroke-opacity:1;paint-order:stroke markers fill"
           d="m 330.36706,387.75252 c -0.45379,-1.375 -1.12158,-2.5 -1.48397,-2.5 -1.5112,0 -0.40244,-1.3872 3.89669,-4.87528 4.91301,-3.98615 5.55113,-4.18299 8.94046,-2.75788 l 2.23148,0.93827 -5.99077,5.84744 c -3.29492,3.2161 -6.16583,5.84745 -6.37979,5.84745 -0.21397,0 -0.76031,-1.125 -1.2141,-2.5 z"
           id="path9462"
           inkscape:connector-curvature="0"
           transform="scale(0.26458333)" />
        <path
           style="opacity:0.5270004;fill:#a02c2c;fill-opacity:1;fill-rule:evenodd;stroke:url(#EMFhbasepattern);stroke-width:2.69966269;stroke-linecap:round;stroke-linejoin:miter;stroke-miterlimit:4;stroke-dasharray:none;stroke-dashoffset:0;stroke-opacity:1;paint-order:stroke markers fill"
           d="m 389.39675,387.95138 c -3.4801,-3.88727 -6.21224,-7.14633 -6.07143,-7.24236 0.14081,-0.096 1.12206,-0.71584 2.18054,-1.37738 l 1.92451,-1.20279 5.21835,5.74277 c 2.87009,3.15852 5.31433,6.01359 5.43164,6.3446 0.11732,0.33101 -0.36482,1.54708 -1.07143,2.70238 l -1.28473,2.10055 z"
           id="path9464"
           inkscape:connector-curvature="0"
           transform="scale(0.26458333)" />
        <path
           style="opacity:0.5270004;fill:#a02c2c;fill-opacity:1;fill-rule:evenodd;stroke:url(#EMFhbasepattern);stroke-width:2.69966269;stroke-linecap:round;stroke-linejoin:miter;stroke-miterlimit:4;stroke-dasharray:none;stroke-dashoffset:0;stroke-opacity:1;paint-order:stroke markers fill"
           d="m 354.64864,406.64538 c -0.002,-2.14108 -0.37908,-5.82143 -0.83733,-8.17858 -1.11985,-5.76017 -1.0117,-9.22974 0.48214,-15.4684 1.36412,-5.69684 2.50218,-7.80998 2.50218,-4.646 0,1.07637 0.68453,3.29882 1.52118,4.9388 l 1.52119,2.98176 -1.96041,11.45407 c -2.09076,12.21565 -3.22213,15.3405 -3.22895,8.91835 z"
           id="path9466"
           inkscape:connector-curvature="0"
           transform="scale(0.26458333)" />
        <path
           style="opacity:0.5270004;fill:#a02c2c;fill-opacity:1;fill-rule:evenodd;stroke:url(#EMFhbasepattern);stroke-width:2.69966269;stroke-linecap:round;stroke-linejoin:miter;stroke-miterlimit:4;stroke-dasharray:none;stroke-dashoffset:0;stroke-opacity:1;paint-order:stroke markers fill"
           d="m 330.13638,386.85966 -1.2426,-2.67857 3.3998,-3.03937 c 1.8699,-1.67165 3.99718,-3.22896 4.72731,-3.4607 1.67378,-0.53123 6.20331,0.28474 6.20331,1.1175 0,0.64324 -10.76722,10.73289 -11.45832,10.73726 -0.2128,0.001 -0.94607,-1.2029 -1.6295,-2.67612 z"
           id="path9468"
           inkscape:connector-curvature="0"
           transform="scale(0.26458333)" />
        <path
           style="opacity:0.5270004;fill:#a02c2c;fill-opacity:1;fill-rule:evenodd;stroke:url(#EMFhbasepattern);stroke-width:2.69966269;stroke-linecap:round;stroke-linejoin:miter;stroke-miterlimit:4;stroke-dasharray:none;stroke-dashoffset:0;stroke-opacity:1;paint-order:stroke markers fill"
           d="m 268.42715,422.58903 c 0.52483,-0.47585 4.54295,-3.64831 8.92915,-7.04992 7.90439,-6.13004 8.02441,-6.19146 13.57143,-6.94481 9.04364,-1.22824 21.73007,-3.54475 25.82805,-4.71614 2.09163,-0.59788 3.93303,-0.95699 4.092,-0.79802 0.15897,0.15897 -5.8404,4.73313 -13.33194,10.1648 l -13.62097,9.87577 -13.21098,0.16674 c -10.38343,0.13106 -13.00675,-0.0184 -12.25674,-0.69842 z"
           id="path9476"
           inkscape:connector-curvature="0"
           transform="scale(0.26458333)" />
        <path
           style="opacity:0.5270004;fill:#a02c2c;fill-opacity:1;fill-rule:evenodd;stroke:url(#EMFhbasepattern);stroke-width:2.69966269;stroke-linecap:round;stroke-linejoin:miter;stroke-miterlimit:4;stroke-dasharray:none;stroke-dashoffset:0;stroke-opacity:1;paint-order:stroke markers fill"
           d="m 338.25043,430.49754 c -0.31401,-0.29846 -11.71855,-1.04386 -16.95144,-1.10795 l -3.0824,-0.0378 10.5824,-8.95221 c 9.91403,-8.38681 11.91928,-10.36323 10.46335,-10.31295 -0.32738,0.0113 -5.84319,4.18988 -12.25736,9.28571 -6.41417,5.09584 -12.19988,9.29837 -12.85714,9.33896 -4.2533,0.26266 -20.64968,-0.29907 -21.42858,-0.73413 -0.64069,-0.35787 2.58542,-3.17212 9.95552,-8.68455 5.99684,-4.48531 11.08409,-8.17085 11.30498,-8.19007 1.42624,-0.12412 8.85491,-1.41325 12.18734,-2.11492 0.98214,-0.2068 2.91072,-0.54962 4.28572,-0.76183 1.375,-0.21221 3.14285,-0.58854 3.92857,-0.83629 0.78571,-0.24775 1.75,-0.51404 2.14285,-0.59176 0.39286,-0.0777 2.58634,-0.68959 4.8744,-1.35972 2.28806,-0.67012 4.26958,-1.10831 4.40337,-0.97375 0.1338,0.13456 -0.33131,2.65536 -1.03358,5.60179 -0.70227,2.94643 -1.13803,5.59822 -0.96836,5.89286 0.16966,0.29464 3.28611,0.53571 6.92543,0.53571 h 6.61695 l 1.4988,-3.03571 c 0.82434,-1.66964 1.71851,-4.54334 1.98705,-6.386 l 0.48824,-3.35029 5.67057,-0.49465 5.67057,-0.49465 2.12248,-3.08491 c 1.16736,-1.69671 2.72364,-4.46649 3.45839,-6.15507 0.73476,-1.68858 2.34187,-4.01876 3.57136,-5.17818 l 2.23544,-2.10803 3.91802,3.86935 c 2.15491,2.12814 3.91802,4.09924 3.91802,4.38023 0,0.80047 -8.6491,9.44171 -11.42858,11.4182 -2.9143,2.07237 -9.29952,5.12971 -9.75729,4.67195 -0.17302,-0.17303 3.71945,-3.79502 8.64992,-8.04888 4.93049,-4.25386 8.96452,-7.98768 8.96452,-8.29739 0,-1.5443 -0.31027,-1.30248 -23.57143,18.37055 -22.33248,18.88761 -21.43936,18.2092 -23.97227,18.2092 -1.22001,0 -2.35214,-0.12729 -2.51583,-0.28287 z"
           id="path9478"
           inkscape:connector-curvature="0"
           transform="scale(0.26458333)" />
        <path
           style="opacity:0.5270004;fill:#a02c2c;fill-opacity:1;fill-rule:evenodd;stroke:url(#EMFhbasepattern);stroke-width:2.69966269;stroke-linecap:round;stroke-linejoin:miter;stroke-miterlimit:4;stroke-dasharray:none;stroke-dashoffset:0;stroke-opacity:1;paint-order:stroke markers fill"
           d="m 453.01598,450.88261 c -0.20806,-0.33665 7.24618,-8.15499 16.56499,-17.37409 l 16.94327,-16.762 11.78572,1.02075 c 6.48214,0.56142 11.93063,1.15861 12.10776,1.32709 0.53867,0.51239 -17.31353,18.13359 -19.59113,19.33763 -1.16943,0.61821 -3.25871,1.22275 -4.64286,1.34342 -1.38415,0.12067 -3.80234,0.5845 -5.37377,1.03073 -1.57143,0.44623 -3.41965,0.85258 -4.10715,0.903 -0.6875,0.0504 -1.25,0.3632 -1.25,0.69506 0,0.33186 -0.32142,0.40472 -0.71428,0.16192 -0.39286,-0.2428 -0.71429,-0.0617 -0.71429,0.40245 0,0.62888 -0.273,0.61733 -1.07143,-0.0453 -0.79842,-0.66264 -1.07142,-0.67418 -1.07142,-0.0453 0,0.46415 -0.32143,0.64525 -0.71429,0.40245 -0.39286,-0.2428 -0.71429,-0.11114 -0.71429,0.29257 0,0.40371 -0.44069,0.56491 -0.97932,0.35822 -0.53864,-0.20669 -1.4593,0.10416 -2.04592,0.69078 -0.79603,0.79603 -1.27237,0.86081 -1.87782,0.25537 -0.60544,-0.60544 -0.814,-0.4579 -0.82216,0.58163 -0.009,1.16084 -0.12628,1.21438 -0.70335,0.32143 -0.59434,-0.91968 -0.69396,-0.89756 -0.70334,0.15615 -0.007,0.79574 -0.38785,1.08295 -1.08237,0.81644 -0.58929,-0.22613 -1.07143,-0.0364 -1.07143,0.42171 0,0.45808 -0.32143,0.63421 -0.71429,0.39141 -0.39285,-0.2428 -0.71428,-0.0821 -0.71428,0.35715 0,0.43922 -0.29922,0.61366 -0.66493,0.38764 -0.36571,-0.22602 -0.87007,-0.079 -1.12079,0.32664 -0.25072,0.40568 -0.69652,0.58885 -0.99067,0.40705 -0.29415,-0.18179 -0.98576,0.29511 -1.5369,1.05978 -1.08449,1.50465 -1.81456,1.74047 -2.40926,0.77823 z"
           id="path9480"
           inkscape:connector-curvature="0"
           transform="scale(0.26458333)" />
        <path
           style="opacity:0.5270004;fill:#a02c2c;fill-opacity:1;fill-rule:evenodd;stroke:url(#EMFhbasepattern);stroke-width:2.69966269;stroke-linecap:round;stroke-linejoin:miter;stroke-miterlimit:4;stroke-dasharray:none;stroke-dashoffset:0;stroke-opacity:1;paint-order:stroke markers fill"
           d="m 492.88896,440.21746 12.79329,-12.89552 12.09515,-0.0789 c 7.04438,-0.046 11.9926,0.19374 11.84957,0.57403 -0.13507,0.35914 -3.16846,3.99669 -6.74086,8.08347 l -6.49527,7.4305 -4.9333,0.93775 c -2.71331,0.51577 -6.46008,1.37099 -8.32615,1.90049 -1.86608,0.52951 -3.39286,0.82731 -3.39286,0.66178 0,-0.16553 -0.81197,0.008 -1.80437,0.38505 -0.9924,0.37731 -2.6799,0.84208 -3.75,1.03281 -1.0701,0.19073 -3.07063,0.79277 -4.44563,1.33787 -1.375,0.54509 -3.46429,1.31855 -4.64286,1.71879 -1.17857,0.40024 -2.78571,0.97065 -3.57143,1.26758 -0.78571,0.29693 4.32841,-5.26312 11.36472,-12.35566 z"
           id="path9482"
           inkscape:connector-curvature="0"
           transform="scale(0.26458333)" />
        <path
           style="opacity:0.5270004;fill:#a02c2c;fill-opacity:1;fill-rule:evenodd;stroke:url(#EMFhbasepattern);stroke-width:2.69966269;stroke-linecap:round;stroke-linejoin:miter;stroke-miterlimit:4;stroke-dasharray:none;stroke-dashoffset:0;stroke-opacity:1;paint-order:stroke markers fill"
           d="m 519.59696,442.38755 c 1.96417,-2.25893 5.29774,-6.00019 7.40794,-8.31392 l 3.83673,-4.20679 13.50422,-0.3533 13.50423,-0.35331 -1.37721,1.73341 c -0.75746,0.95338 -3.12389,3.84869 -5.25874,6.43403 l -3.88155,4.70062 -4.97458,0.46234 c -2.73602,0.25428 -7.73932,0.95612 -11.11845,1.55963 -9.31241,1.6632 -13.93669,2.43572 -14.60741,2.4403 -0.33351,0.002 1.00066,-1.84408 2.96482,-4.10301 z"
           id="path9484"
           inkscape:connector-curvature="0"
           transform="scale(0.26458333)" />
        <path
           style="opacity:0.5270004;fill:#a02c2c;fill-opacity:1;fill-rule:evenodd;stroke:url(#EMFhbasepattern);stroke-width:2.69966269;stroke-linecap:round;stroke-linejoin:miter;stroke-miterlimit:4;stroke-dasharray:none;stroke-dashoffset:0;stroke-opacity:1;paint-order:stroke markers fill"
           d="m 508.6671,468.81131 c -5.5,-0.59094 -10.11708,-1.17636 -10.26018,-1.30095 -0.1431,-0.12458 1.36513,-2.09518 3.35164,-4.37911 3.10484,-3.56972 4.24425,-4.34642 8.11732,-5.53338 2.47803,-0.75943 4.66622,-1.4036 4.86265,-1.43149 0.19643,-0.0279 0.75893,-0.30582 1.25,-0.61764 0.49107,-0.31181 0.89286,-0.3952 0.89286,-0.18531 0,0.20989 0.81196,0.0729 1.80436,-0.3044 0.99241,-0.37731 2.51919,-0.8233 3.39286,-0.99108 1.86627,-0.35841 7.35943,-1.69357 12.06034,-2.93137 1.83094,-0.48211 3.70649,-0.64326 4.16788,-0.3581 1.29334,0.79933 -13.01067,17.52493 -15.82736,18.50683 -1.23191,0.42945 -2.59365,0.74023 -3.0261,0.69062 -0.43245,-0.0496 -5.28627,-0.57368 -10.78627,-1.16462 z"
           id="path9488"
           inkscape:connector-curvature="0"
           transform="scale(0.26458333)" />
        <path
           style="opacity:0.5270004;fill:#a02c2c;fill-opacity:1;fill-rule:evenodd;stroke:url(#EMFhbasepattern);stroke-width:2.69966269;stroke-linecap:round;stroke-linejoin:miter;stroke-miterlimit:4;stroke-dasharray:none;stroke-dashoffset:0;stroke-opacity:1;paint-order:stroke markers fill"
           d="m 259.9618,454.11801 c -3.60934,-0.47699 -6.79684,-1.10165 -7.08333,-1.38814 -0.46577,-0.46577 6.91684,-0.91757 12.03863,-0.73674 1.37202,0.0484 1.96758,-0.28546 1.97522,-1.1074 0.007,-0.75377 0.19957,-0.88872 0.53572,-0.37545 0.53116,0.81106 1.773,0.72042 16.5962,-1.2113 7.21442,-0.94016 10,-0.26201 10,2.43449 0,1.62847 -0.27252,1.72326 -6.25,2.17383 -13.06807,0.98505 -21.4713,1.04871 -27.81244,0.21071 z"
           id="path9492"
           inkscape:connector-curvature="0"
           transform="scale(0.26458333)" />
        <path
           style="opacity:0.5270004;fill:#a02c2c;fill-opacity:1;fill-rule:evenodd;stroke:url(#EMFhbasepattern);stroke-width:2.69966269;stroke-linecap:round;stroke-linejoin:miter;stroke-miterlimit:4;stroke-dasharray:none;stroke-dashoffset:0;stroke-opacity:1;paint-order:stroke markers fill"
           d="m 240.45282,448.39002 c 0,-1.57714 2.24223,-2.60961 5.66732,-2.60961 1.59726,0 2.9041,-0.25661 2.9041,-0.57025 0,-0.6906 11.92155,0.37541 13.39025,1.19734 1.21488,0.67988 -6.20623,1.92837 -15.71167,2.64326 -5.42311,0.40786 -6.25,0.32044 -6.25,-0.66074 z"
           id="path9494"
           inkscape:connector-curvature="0"
           transform="scale(0.26458333)" />
        <path
           style="opacity:0.5270004;fill:#a02c2c;fill-opacity:1;fill-rule:evenodd;stroke:url(#EMFhbasepattern);stroke-width:2.69966269;stroke-linecap:round;stroke-linejoin:miter;stroke-miterlimit:4;stroke-dasharray:none;stroke-dashoffset:0;stroke-opacity:1;paint-order:stroke markers fill"
           d="m 293.30996,457.60904 c -7.66072,-0.85353 -14.41072,-1.74939 -15,-1.9908 -0.58929,-0.24141 -1.55357,-0.60329 -2.14286,-0.80418 -0.58928,-0.20089 2.30357,-0.20025 6.42857,0.001 5.27022,0.25764 7.18558,0.14734 6.44241,-0.37102 -0.75417,-0.52604 0.11677,-0.61647 3.03572,-0.31521 2.37563,0.24519 4.0933,0.14099 4.0933,-0.24832 0,-0.36893 1.04464,-0.54984 2.32143,-0.40202 1.27679,0.14782 5.94855,-0.23816 10.3817,-0.85772 11.33819,-1.58459 10.8683,-1.65941 10.8683,1.73067 0,2.06349 0.29762,2.85714 1.07143,2.85714 0.7483,0 1.07143,-0.75397 1.07143,-2.5 0,-2.94261 -0.9775,-2.8304 12.5,-1.43488 5.5,0.5695 10.30535,1.04497 10.67857,1.05659 0.42857,0.0134 0.42857,0.26534 0,0.68396 -0.91505,0.8938 -15.75595,2.7128 -26.75,3.27866 -4.91072,0.25276 -9.41072,0.55136 -10,0.66357 -0.58929,0.11221 -7.33929,-0.49432 -15,-1.34784 z"
           id="path9496"
           inkscape:connector-curvature="0"
           transform="scale(0.26458333)" />
        <path
           style="opacity:0.5270004;fill:#a02c2c;fill-opacity:1;fill-rule:evenodd;stroke:url(#EMFhbasepattern);stroke-width:2.69966269;stroke-linecap:round;stroke-linejoin:miter;stroke-miterlimit:4;stroke-dasharray:none;stroke-dashoffset:0;stroke-opacity:1;paint-order:stroke markers fill"
           d="m 482.46644,476.94029 c -3.80322,-0.44151 -7.09176,-0.98414 -7.30788,-1.20586 -0.67134,-0.68874 16.41066,-2.31443 19.07228,-1.81511 1.53602,0.28816 2.61558,0.18027 2.76788,-0.27662 0.30036,-0.90109 17.08023,-2.19634 21.2346,-1.63912 1.60194,0.21486 3.25545,0.80375 3.67447,1.30864 0.60308,0.72668 -0.25066,1.01077 -4.09656,1.36316 -2.67213,0.24485 -8.87627,0.92148 -13.78699,1.50363 -13.51527,1.60219 -14.12768,1.62382 -21.5578,0.76128 z"
           id="path9502"
           inkscape:connector-curvature="0"
           transform="scale(0.26458333)" />
        <path
           style="opacity:0.5270004;fill:#a02c2c;fill-opacity:1;fill-rule:evenodd;stroke:url(#EMFhbasepattern);stroke-width:2.69966269;stroke-linecap:round;stroke-linejoin:miter;stroke-miterlimit:4;stroke-dasharray:none;stroke-dashoffset:0;stroke-opacity:1;paint-order:stroke markers fill"
           d="m 245.47138,452.13855 c -2.15051,-0.37299 -4.16565,-0.9338 -4.4781,-1.24625 -0.5149,-0.5149 8.37421,-1.96539 15.53096,-2.53429 1.57143,-0.12491 3.17858,-0.3119 3.57143,-0.41552 2.08827,-0.5508 4.02739,0.12252 4.57312,1.58792 0.57728,1.55016 0.41818,1.62272 -4.48731,2.04649 -2.79719,0.24164 -6.37152,0.61945 -7.94295,0.83958 -1.57143,0.22013 -4.61665,0.0951 -6.76715,-0.27793 z"
           id="path9504"
           inkscape:connector-curvature="0"
           transform="scale(0.26458333)" />
        <path
           style="opacity:0.5270004;fill:#a02c2c;fill-opacity:1;fill-rule:evenodd;stroke:url(#EMFhbasepattern);stroke-width:2.69966269;stroke-linecap:round;stroke-linejoin:miter;stroke-miterlimit:4;stroke-dasharray:none;stroke-dashoffset:0;stroke-opacity:1;paint-order:stroke markers fill"
           d="m 503.30996,479.06308 -6.78572,-0.86284 5,-0.53624 c 4.65274,-0.499 12.07172,-1.40893 18.39286,-2.25587 2.44628,-0.32777 2.67857,-0.21128 2.67857,1.34324 0,1.51579 -0.41054,1.75506 -3.75,2.18556 -7.47621,0.96378 -8.85988,0.97501 -15.53571,0.12615 z"
           id="path9506"
           inkscape:connector-curvature="0"
           transform="scale(0.26458333)" />
        <path
           style="opacity:0.5270004;fill:#a02c2c;fill-opacity:1;fill-rule:evenodd;stroke:url(#EMFhbasepattern);stroke-width:2.69966269;stroke-linecap:round;stroke-linejoin:miter;stroke-miterlimit:4;stroke-dasharray:none;stroke-dashoffset:0;stroke-opacity:1;paint-order:stroke markers fill"
           d="m 480.45281,465.95451 c -5.69642,-0.58547 -10.50072,-1.19524 -10.6762,-1.35503 -0.17549,-0.15979 2.17652,-2.80085 5.22668,-5.86901 l 5.54576,-5.57847 9.05902,-2.91393 c 9.55036,-3.07198 23.03453,-6.22773 24.50953,-5.73607 1.2115,0.40384 -17.86082,21.63555 -19.43509,21.63555 -0.68943,0 -1.49458,0.24107 -1.78922,0.53572 -0.29464,0.29464 -0.88393,0.49297 -1.30952,0.44072 -0.4256,-0.0522 -5.43453,-0.57401 -11.13096,-1.15948 z"
           id="path9508"
           inkscape:connector-curvature="0"
           transform="scale(0.26458333)" />
        <path
           style="opacity:0.5270004;fill:#a02c2c;fill-opacity:1;fill-rule:evenodd;stroke:url(#EMFhbasepattern);stroke-width:2.69966269;stroke-linecap:round;stroke-linejoin:miter;stroke-miterlimit:4;stroke-dasharray:none;stroke-dashoffset:0;stroke-opacity:1;paint-order:stroke markers fill"
           d="m 452.59567,463.11532 c -5.30357,-0.58437 -9.7859,-1.19719 -9.96074,-1.36182 -0.59675,-0.56192 9.56157,-10.25881 10.74698,-10.25881 0.64993,0 1.51562,-0.40178 1.92375,-0.89285 0.40813,-0.49107 2.37606,-1.52612 4.37317,-2.3001 1.99712,-0.77399 3.63113,-1.67689 3.63113,-2.00644 0,-0.32956 0.32143,-0.40055 0.71428,-0.15775 0.39286,0.2428 0.71429,0.0667 0.71429,-0.39141 0,-0.45807 0.47185,-0.65179 1.04855,-0.43049 0.57671,0.2213 1.21288,0.13649 1.41371,-0.18846 0.20083,-0.32496 1.41649,-0.83035 2.70145,-1.12309 1.28496,-0.29273 2.81843,-0.64276 3.40772,-0.77783 0.58928,-0.13506 3.32143,-0.85675 6.07143,-1.60374 2.75,-0.74699 6.44642,-1.57795 8.21428,-1.84658 l 3.21429,-0.48841 -4.27979,4.49643 c -16.83375,17.6859 -19.9502,20.56918 -22.13713,20.48085 -1.18498,-0.0479 -6.4938,-0.56514 -11.79737,-1.1495 z"
           id="path9510"
           inkscape:connector-curvature="0"
           transform="scale(0.26458333)" />
        <path
           style="opacity:0.5270004;fill:#a02c2c;fill-opacity:1;fill-rule:evenodd;stroke:url(#EMFhbasepattern);stroke-width:2.69966269;stroke-linecap:round;stroke-linejoin:miter;stroke-miterlimit:4;stroke-dasharray:none;stroke-dashoffset:0;stroke-opacity:1;paint-order:stroke markers fill"
           d="m 517.62798,427.37006 -12.4677,-0.19607 6.23732,-6.26634 6.23731,-6.26635 4.08752,0.57252 c 2.24814,0.31489 7.23357,0.76281 11.07874,0.99538 l 6.99122,0.42285 -4.08267,4.75275 c -2.24547,2.61401 -4.42723,5.07418 -4.84836,5.46704 -0.46723,0.43586 -5.62554,0.63786 -13.23338,0.51822 z"
           id="path9512"
           inkscape:connector-curvature="0"
           transform="scale(0.26458333)" />
        <path
           style="opacity:0.5270004;fill:#a02c2c;fill-opacity:1;fill-rule:evenodd;stroke:url(#EMFhbasepattern);stroke-width:2.69966269;stroke-linecap:round;stroke-linejoin:miter;stroke-miterlimit:4;stroke-dasharray:none;stroke-dashoffset:0;stroke-opacity:1;paint-order:stroke markers fill"
           d="m 535.8291,423.84212 c 2.68601,-3.05894 5.23384,-5.95891 5.66185,-6.44437 0.61006,-0.69194 3.39741,-0.71894 12.89987,-0.12494 6.66691,0.41676 12.23449,0.87057 12.3724,1.00848 0.13791,0.13791 -1.7599,2.66009 -4.21735,5.60485 l -4.46809,5.3541 -13.56616,0.0818 -13.56616,0.0818 z"
           id="path9514"
           inkscape:connector-curvature="0"
           transform="scale(0.26458333)" />
        <path
           style="opacity:0.5270004;fill:#a02c2c;fill-opacity:1;fill-rule:evenodd;stroke:url(#EMFhbasepattern);stroke-width:2.69966269;stroke-linecap:round;stroke-linejoin:miter;stroke-miterlimit:4;stroke-dasharray:none;stroke-dashoffset:0;stroke-opacity:1;paint-order:stroke markers fill"
           d="m 307.59567,103.00437 c 0,-0.93124 4.38597,-1.40803 20.71429,-2.25181 15.26538,-0.788844 22.76021,-1.424583 36.25223,-3.075044 9.10767,-1.114129 34.46534,-0.743262 29.10491,0.425673 -3.77686,0.823611 -14.5429,2.295001 -24.28571,3.319121 -16.87444,1.77376 -61.78572,2.92374 -61.78572,1.58206 z"
           id="path9522"
           inkscape:connector-curvature="0"
           transform="scale(0.26458333)" />
        <path
           style="opacity:0.5270004;fill:#a02c2c;fill-opacity:1;fill-rule:evenodd;stroke:url(#EMFhbasepattern);stroke-width:2.69966269;stroke-linecap:round;stroke-linejoin:miter;stroke-miterlimit:4;stroke-dasharray:none;stroke-dashoffset:0;stroke-opacity:1;paint-order:stroke markers fill"
           d="m 307.452,99.5044 c -0.21138,-1.085267 1.0178,-1.319756 10.84549,-2.068975 19.28958,-1.47055 30.31813,-1.880621 33.97095,-1.26313 3.42568,0.579095 3.27285,0.626997 -4.67277,1.46453 -7.83425,0.825796 -22.59313,2.003639 -34.41692,2.746665 -4.77888,0.30032 -5.51916,0.18668 -5.72675,-0.87909 z"
           id="path9524"
           inkscape:connector-curvature="0"
           transform="scale(0.26458333)" />
        <path
           style="opacity:0.5270004;fill:#a02c2c;fill-opacity:1;fill-rule:evenodd;stroke:url(#EMFhbasepattern);stroke-width:2.69966269;stroke-linecap:round;stroke-linejoin:miter;stroke-miterlimit:4;stroke-dasharray:none;stroke-dashoffset:0;stroke-opacity:1;paint-order:stroke markers fill"
           d="m 267.53615,441.20937 c -0.16369,-0.15692 -2.70833,-0.49338 -5.65476,-0.74768 -2.94643,-0.2543 -6,-0.58346 -6.78572,-0.73146 -0.78571,-0.148 -2.99725,-0.29368 -4.91452,-0.32374 l -3.48596,-0.0547 6.54366,-5.2248 6.54366,-5.22481 6.9423,0.1584 c 13.20966,0.30139 16.6426,0.52059 16.99138,1.08493 0.33283,0.53852 -14.31418,11.34913 -15.37664,11.34913 -0.27818,0 -0.63971,-0.12839 -0.8034,-0.28532 z"
           id="path9536"
           inkscape:connector-curvature="0"
           transform="scale(0.26458333)" />
        <path
           style="opacity:0.5270004;fill:#a02c2c;fill-opacity:1;fill-rule:evenodd;stroke:url(#EMFhbasepattern);stroke-width:2.69966269;stroke-linecap:round;stroke-linejoin:miter;stroke-miterlimit:4;stroke-dasharray:none;stroke-dashoffset:0;stroke-opacity:1;paint-order:stroke markers fill"
           d="m 278.73951,445.35358 c -4.67446,-0.53679 -8.63417,-1.11113 -8.79937,-1.27632 -0.16519,-0.16519 2.27433,-2.26028 5.42115,-4.65575 3.14682,-2.39547 5.8986,-4.06884 6.11505,-3.7186 0.21646,0.35024 2.88722,0.67576 5.93502,0.72339 3.0478,0.0476 6.34503,0.22824 7.32717,0.40136 0.98214,0.17312 3.37454,0.49892 5.31643,0.724 1.94189,0.22507 3.62099,0.49951 3.73134,0.60985 0.11034,0.11034 -2.03922,2.03045 -4.77679,4.2669 -5.71773,4.6711 -5.42888,4.62941 -20.27,2.92517 z"
           id="path9538"
           inkscape:connector-curvature="0"
           transform="scale(0.26458333)" />
        <path
           style="opacity:0.5270004;fill:#a02c2c;fill-opacity:1;fill-rule:evenodd;stroke:url(#EMFhbasepattern);stroke-width:2.69966269;stroke-linecap:round;stroke-linejoin:miter;stroke-miterlimit:4;stroke-dasharray:none;stroke-dashoffset:0;stroke-opacity:1;paint-order:stroke markers fill"
           d="m 315.39329,449.07339 c -0.16369,-0.15314 -1.58333,-0.47253 -3.15476,-0.70975 -1.57143,-0.23722 -3.33929,-0.5375 -3.92857,-0.66729 -0.58929,-0.12978 -2.91964,-0.63676 -5.17857,-1.1266 -2.25893,-0.48984 -4.10715,-1.00616 -4.10715,-1.14736 0,-0.14121 4.01786,-3.65759 8.92858,-7.81417 4.91071,-4.15659 8.92857,-7.25253 8.92857,-6.87987 0,0.37266 0.5625,0.69072 1.25,0.70681 2.56106,0.0599 12.05112,0.75318 14.46428,1.05662 1.375,0.1729 3.54854,0.40939 4.83009,0.52552 1.28155,0.11613 2.24127,0.4776 2.13272,0.80326 -0.10856,0.32566 -4.19179,3.95343 -9.07385,8.0617 -8.14299,6.85235 -9.12096,7.46958 -11.8351,7.46958 -1.62724,0 -3.09255,-0.1253 -3.25624,-0.27845 z"
           id="path9540"
           inkscape:connector-curvature="0"
           transform="scale(0.26458333)" />
        <path
           style="opacity:0.5270004;fill:#a02c2c;fill-opacity:1;fill-rule:evenodd;stroke:url(#EMFhbasepattern);stroke-width:2.69966269;stroke-linecap:round;stroke-linejoin:miter;stroke-miterlimit:4;stroke-dasharray:none;stroke-dashoffset:0;stroke-opacity:1;paint-order:stroke markers fill"
           d="m 315.11799,410.17894 c 0.38058,-0.34554 6.47768,-4.99457 13.54911,-10.33117 16.27886,-12.28519 16.49107,-12.45724 15.98696,-12.96135 -0.23115,-0.23115 -4.02555,2.18873 -8.43201,5.37751 -4.40647,3.18877 -8.16168,5.64784 -8.34493,5.4646 -0.40569,-0.40569 12.15955,-11.88652 14.87199,-13.5885 1.99067,-1.24909 5.986,-1.60608 7.46233,-0.66677 0.6073,0.38639 0.19843,3.17245 -1.52361,10.38172 -1.29451,5.41948 -2.47161,9.93054 -2.61577,10.02458 -0.81739,0.53319 -10.7551,2.90121 -18.47639,4.40267 -13.38859,2.6035 -13.22951,2.57932 -12.47768,1.89671 z"
           id="path9542"
           inkscape:connector-curvature="0"
           transform="scale(0.26458333)" />
      </g>
      <g
         transform="translate(-0.59344677,-19.811624)"
         inkscape:label="#g12957"
         id="fondo_teclado">
        <g
           id="g12485"
           style="fill:#6c9490;fill-opacity:1"
           transform="translate(0.18898813,18.331845)">
          <path
             inkscape:connector-curvature="0"
             id="path12225"
             d="M 99.596723,232.74402 H 232.45535 v 42.52232 H 99.596723 Z"
             style="fill:#6c9490;fill-opacity:1;stroke:#000000;stroke-width:0.26458332px;stroke-linecap:butt;stroke-linejoin:miter;stroke-opacity:1" />
          <path
             inkscape:connector-curvature="0"
             id="path12227"
             d="m 99.822788,254.00766 v -20.97767 h 66.240332 66.24032 v 20.97767 20.97768 H 166.06312 99.822788 Z"
             style="fill:#6c9490;fill-opacity:1;stroke:none;stroke-width:0.1889881" />
        </g>
      </g>
      <path
         inkscape:connector-curvature="0"
         id="path2013"
         d="m 65.980848,175.09122 0.992188,-0.75595 1.08668,0.0473 -0.897694,0.82682 -0.330729,3.77976 0.212611,0.77958 0.236236,-0.77958 0.87407,-0.0236 -0.87407,1.65364 0.165365,6.47285 -1.110306,0.0236 0.04725,-6.47284 -0.68508,-1.74814 z"
         style="fill:#6c5353;stroke:#000000;stroke-width:0.26458332px;stroke-linecap:butt;stroke-linejoin:miter;stroke-opacity:1" />
    </g>
  </g>
</svg>
